<?xml version="1.0" encoding="UTF-8"?>
<!DOCTYPE svg PUBLIC "-//W3C//DTD SVG 1.1//EN" "http://www.w3.org/Graphics/SVG/1.1/DTD/svg11.dtd">
<!-- Creator: CorelDRAW X7 -->
<svg xmlns="http://www.w3.org/2000/svg" xml:space="preserve" width="399px" height="427px" version="1.1" style="shape-rendering:geometricPrecision; text-rendering:geometricPrecision; image-rendering:optimizeQuality; fill-rule:evenodd; clip-rule:evenodd"
viewBox="0 0 334 358"
 xmlns:xlink="http://www.w3.org/1999/xlink">
 <defs>
  <style type="text/css">
   <![CDATA[
    .fil0 {fill:black}
   ]]>
  </style>
 </defs>
 <g id="Слой_x0020_1">
  <metadata id="CorelCorpID_0Corel-Layer"/>
  <path class="fil0" d="M105 201l40 17 0 48 -132 92 0 -44 92 -63 0 -50zm-69 -201l96 0c5,0 10,1 15,3l164 61c13,5 23,18 23,33l0 83c0,20 -16,36 -36,36l-95 0c-4,0 -9,-1 -13,-3l-166 -61c-14,-5 -24,-18 -24,-33l0 -83c0,-20 16,-36 36,-36zm170 75l83 0c16,0 30,14 30,30l0 68c0,16 -14,29 -30,29l-83 0c-16,0 -29,-13 -29,-29l0 -68c0,-16 13,-30 29,-30zm78 45c1,0 2,1 3,1l0 0 0 0c11,6 18,17 18,30 0,18 -15,33 -34,33 -4,0 -7,0 -11,-2l0 0 0 0c-3,-1 -5,-2 -8,-4l-17 -8c-4,-2 -9,-4 -12,-7l0 0 0 0c-8,-6 -12,-15 -12,-26 0,-18 15,-33 33,-33 3,0 6,0 9,1l0 0 0 0c4,1 8,3 11,5l20 10zm-13 6c14,0 25,11 25,25 0,14 -11,25 -25,25 -14,0 -25,-11 -25,-25 0,-14 11,-25 25,-25z"/>
 </g>
</svg>
