<?xml version="1.0" encoding="UTF-8"?>
<!DOCTYPE svg PUBLIC "-//W3C//DTD SVG 1.1//EN" "http://www.w3.org/Graphics/SVG/1.1/DTD/svg11.dtd">
<!-- Creator: CorelDRAW X7 -->
<svg xmlns="http://www.w3.org/2000/svg" xml:space="preserve" width="431px" height="314px" version="1.1" style="shape-rendering:geometricPrecision; text-rendering:geometricPrecision; image-rendering:optimizeQuality; fill-rule:evenodd; clip-rule:evenodd"
viewBox="0 0 33675 24513"
 xmlns:xlink="http://www.w3.org/1999/xlink">
 <defs>
  <style type="text/css">
   <![CDATA[
    .fil0 {fill:black}
   ]]>
  </style>
 </defs>
 <g id="Слой_x0020_1">
  <metadata id="CorelCorpID_0Corel-Layer"/>
  <path class="fil0" d="M26974 17387l-395 4074c-63,644 413,1223 1058,1286l1292 125c6440,625 6216,-20616 0,-20011l-1292 125c-645,63 -1121,641 -1058,1286l395 4074c63,645 641,1121 1286,1058l1292 -125c380,-37 701,-253 888,-556 70,138 136,285 197,439 517,1288 734,2995 656,4637 -62,1325 -309,2569 -736,3461 -142,-430 -528,-759 -1005,-806l-1292 -125c-645,-63 -1223,413 -1286,1058zm-9308 -13784l117 196c424,725 793,1540 1099,2426l1605 0c-309,-421 -647,-816 -1015,-1184 -544,-544 -1150,-1027 -1806,-1438zm3990 4675l-2212 0c195,938 323,1927 375,2952l2589 0c-103,-1038 -362,-2029 -752,-2952zm752 5005l-2589 0c-54,1049 -187,2060 -389,3016l2198 0c406,-940 675,-1954 780,-3016zm-1966 5070l-1583 0c-301,861 -662,1654 -1076,2361l-119 199c658,-411 1264,-895 1809,-1440 350,-349 673,-724 969,-1120zm-13595 2557l-117 -196c-414,-707 -775,-1500 -1076,-2361l-1580 0c295,396 619,770 967,1119 544,544 1151,1027 1806,1438zm-3962 -4611l2198 0c-202,-956 -335,-1967 -389,-3016l-2589 0c105,1062 375,2076 780,3016zm-780 -5069l2589 0c52,-1025 180,-2014 375,-2952l-2213 0c-390,922 -648,1914 -751,2952zm1917 -5005l1609 0c306,-886 675,-1701 1099,-2426l120 -201c-657,411 -1264,895 -1809,1439l-4 4c-367,368 -707,763 -1015,1184zm8235 -6225c3383,0 6448,1372 8666,3590 2217,2217 3590,5283 3590,8667 0,3381 -1373,6444 -3590,8662l-4 4c-2218,2217 -5281,3590 -8662,3590 -3384,0 -6450,-1373 -8667,-3590 -2218,-2218 -3590,-5283 -3590,-8666 0,-3380 1373,-6445 3590,-8663l2 -1 2 -3c2218,-2217 5283,-3590 8663,-3590zm-5507 11230l4480 0 0 -2952 -4060 0c-218,924 -362,1915 -420,2952zm6533 0l4480 0c-58,-1037 -202,-2028 -420,-2952l-4060 0 0 2952zm4480 2053l-4480 0 0 3016 4044 0c227,-941 377,-1954 436,-3016zm-6533 0l-4480 0c59,1062 209,2075 436,3016l4044 0 0 -3016zm5435 5070l-3382 0 0 3920c1028,-375 1971,-1297 2727,-2592 240,-409 458,-853 655,-1328zm-5435 0l-3382 0c197,475 416,919 655,1328 756,1295 1699,2217 2727,2592l0 -3920zm-3409 -12128l3409 0 0 -3985c-1028,375 -1971,1297 -2727,2593 -250,427 -478,893 -682,1392zm5462 0l3409 0c-204,-499 -432,-965 -682,-1392 -756,-1296 -1699,-2218 -2727,-2593l0 3985z"/>
 </g>
</svg>
