<?xml version="1.0" encoding="UTF-8"?>
<!DOCTYPE svg PUBLIC "-//W3C//DTD SVG 1.1//EN" "http://www.w3.org/Graphics/SVG/1.1/DTD/svg11.dtd">
<!-- Creator: CorelDRAW X7 -->
<svg xmlns="http://www.w3.org/2000/svg" xml:space="preserve" width="452px" height="467px" version="1.1" style="shape-rendering:geometricPrecision; text-rendering:geometricPrecision; image-rendering:optimizeQuality; fill-rule:evenodd; clip-rule:evenodd"
viewBox="0 0 449 465"
 xmlns:xlink="http://www.w3.org/1999/xlink">
 <defs>
  <style type="text/css">
   <![CDATA[
    .fil0 {fill:black}
   ]]>
  </style>
 </defs>
 <g id="Слой_x0020_1">
  <metadata id="CorelCorpID_0Corel-Layer"/>
  <path class="fil0" d="M439 133l-129 0c5,2 9,5 12,8 15,11 27,26 33,42l84 0c6,0 10,-4 10,-9l0 -31c0,-6 -4,-10 -10,-10zm-263 281l-166 0c-6,0 -10,5 -10,10l0 31c0,5 4,10 10,10l166 0c5,0 10,-5 10,-10l0 -31c0,-5 -5,-10 -10,-10zm-9 20l-49 0 0 11 49 0 0 -11zm-145 -137l57 0c0,-1 -1,-2 -1,-3 0,-4 1,-7 2,-11 0,-1 0,-1 0,-2l-58 0c-5,0 -10,2 -13,5l0 0c-3,4 -5,8 -5,13l0 90c0,5 2,9 5,12l0 0c4,4 8,6 13,6l142 0c5,0 9,-2 13,-6l0 0c3,-3 5,-7 5,-12l0 -52c-4,3 -9,6 -13,8 -1,1 -2,1 -3,2l0 42c0,1 0,1 -1,1l0 0c0,0 0,1 -1,1l-142 0c-1,0 -1,-1 -1,-1l0 0c-1,0 -1,0 -1,-1l0 -90c0,-1 0,-1 1,-1l0 0c0,-1 0,-1 1,-1zm334 -100c34,0 61,25 61,56 0,32 -27,57 -61,57 -5,0 -9,-1 -13,-1 -11,34 -43,60 -82,60 -33,0 -62,-19 -76,-46 -10,13 -26,21 -44,21 -31,0 -55,-22 -55,-50 0,-7 1,-13 4,-19 -24,-9 -41,-31 -41,-57 0,-35 30,-63 67,-63 21,0 39,9 52,23 14,-30 48,-51 88,-51 48,0 87,30 95,70 1,0 3,0 5,0zm74 -44l-49 0 0 10 49 0 0 -10zm-145 -137l143 0c0,0 0,0 1,0 0,1 0,1 0,1l0 91c0,0 0,1 0,1l0 0c-1,0 -1,0 -1,0l-143 0c0,0 -1,0 -1,0l0 0c0,0 0,-1 0,-1l0 -91c0,0 0,0 0,-1l0 0c0,0 1,0 1,0zm143 -16l-143 0c-5,0 -9,2 -12,5l0 0c-3,3 -5,8 -5,12l0 91c0,5 2,9 5,12l0 0 0 1c7,1 13,2 20,4l135 0c4,0 9,-2 12,-5l0 0c3,-3 5,-7 5,-12l0 -91c0,-4 -2,-9 -5,-12 -3,-3 -8,-5 -12,-5z"/>
 </g>
</svg>
