<?xml version="1.0" encoding="UTF-8"?>
<!DOCTYPE svg PUBLIC "-//W3C//DTD SVG 1.1//EN" "http://www.w3.org/Graphics/SVG/1.1/DTD/svg11.dtd">
<!-- Creator: CorelDRAW X7 -->
<svg xmlns="http://www.w3.org/2000/svg" xml:space="preserve" width="512px" height="315px" version="1.1" style="shape-rendering:geometricPrecision; text-rendering:geometricPrecision; image-rendering:optimizeQuality; fill-rule:evenodd; clip-rule:evenodd"
viewBox="0 0 189 116"
 xmlns:xlink="http://www.w3.org/1999/xlink">
 <defs>
  <style type="text/css">
   <![CDATA[
    .fil0 {fill:black}
   ]]>
  </style>
 </defs>
 <g id="Слой_x0020_1">
  <metadata id="CorelCorpID_0Corel-Layer"/>
  <path class="fil0" d="M183 85l-64 0c-3,8 -8,15 -14,20l0 0 0 0 0 0c-4,4 -9,8 -14,11l92 0c3,0 6,-3 6,-6l0 -19c0,-3 -3,-6 -6,-6zm-100 -68l1 1c2,3 4,7 5,11l8 0c-2,-2 -3,-3 -5,-5 -3,-3 -5,-5 -9,-7zm19 22l-10 0c1,5 1,9 2,14l12 0c-1,-5 -2,-10 -4,-14zm4 24l-12 0c-1,5 -1,9 -2,14l10 0c2,-4 3,-9 4,-14zm-9 24l-8 0c-1,4 -3,7 -5,11l-1 1c4,-2 6,-4 9,-7 2,-2 3,-3 5,-5zm-65 12l0 -1c-2,-4 -4,-7 -5,-11l-8 0c2,2 3,3 5,5 2,3 5,5 8,7zm-18 -22l10 0c-1,-5 -2,-9 -2,-14l-12 0c0,5 2,10 4,14zm-4 -24l12 0c0,-5 1,-9 2,-14l-11 0c-1,4 -3,9 -3,14zm9 -24l8 0c1,-4 3,-8 5,-11l0 -1c-3,2 -6,4 -8,7l0 0c-2,2 -4,3 -5,5zm39 -29c16,0 30,6 41,17 10,10 17,25 17,41 0,16 -7,30 -17,41l0 0c-11,10 -25,17 -41,17 -16,0 -31,-7 -41,-17 -11,-11 -17,-25 -17,-41 0,-16 6,-31 17,-41l0 0 0 0c10,-11 25,-17 41,-17zm-26 53l21 0 0 -14 -19 0c-1,4 -2,9 -2,14zm31 0l21 0c0,-5 -1,-10 -2,-14l-19 0 0 14zm21 10l-21 0 0 14 19 0c1,-4 2,-9 2,-14zm-31 0l-21 0c0,5 1,10 2,14l19 0 0 -14zm26 24l-16 0 0 18c5,-2 9,-6 13,-12 1,-2 2,-4 3,-6zm-26 0l-16 0c1,2 2,4 3,6 4,6 8,10 13,12l0 -18zm-16 -58l16 0 0 -18c-5,1 -9,6 -13,12 -1,2 -2,4 -3,6zm26 0l16 0c-1,-2 -2,-4 -3,-6 -4,-6 -8,-11 -13,-12l0 18zm114 68l-29 0 0 7 29 0 0 -7zm-68 -83l67 0c0,0 0,0 0,0 1,0 1,1 1,1l0 55c0,0 0,0 -1,1l0 0c0,0 0,0 0,0l-52 0c-1,3 -2,6 -3,10l55 0c3,0 5,-2 7,-4l0 0c2,-1 3,-4 3,-7l0 -55c0,-3 -1,-6 -3,-8 -2,-2 -4,-3 -7,-3l-78 0c3,2 5,4 7,6 1,2 3,3 4,4z"/>
 </g>
</svg>
