<?xml version="1.0" encoding="UTF-8"?>
<!DOCTYPE svg PUBLIC "-//W3C//DTD SVG 1.1//EN" "http://www.w3.org/Graphics/SVG/1.1/DTD/svg11.dtd">
<!-- Creator: CorelDRAW X7 -->
<svg xmlns="http://www.w3.org/2000/svg" xml:space="preserve" width="382px" height="306px" version="1.1" style="shape-rendering:geometricPrecision; text-rendering:geometricPrecision; image-rendering:optimizeQuality; fill-rule:evenodd; clip-rule:evenodd"
viewBox="0 0 178 143"
 xmlns:xlink="http://www.w3.org/1999/xlink">
 <defs>
  <style type="text/css">
   <![CDATA[
    .fil0 {fill:black}
   ]]>
  </style>
 </defs>
 <g id="Слой_x0020_1">
  <metadata id="CorelCorpID_0Corel-Layer"/>
  <path class="fil0" d="M108 105l15 0 0 15 -15 0 0 -15zm0 -20l15 0 0 15 -15 0 0 -15zm0 -22l15 0 0 16 -15 0 0 -16zm-21 42l15 0 0 15 -15 0 0 -15zm0 -20l15 0 0 15 -15 0 0 -15zm0 -22l15 0 0 16 -15 0 0 -16zm-21 42l15 0 0 15 -15 0 0 -15zm0 -20l15 0 0 15 -15 0 0 -15zm0 -22l15 0 0 16 -15 0 0 -16zm73 0l16 0 0 16 -16 0 0 -16zm0 42l16 0 0 15 -16 0 0 -15zm0 -20l16 0 0 15 -16 0 0 -15zm-90 -59l10 0 0 -19c0,-4 3,-7 7,-7l88 0c4,0 7,3 7,7l0 19 11 0c3,0 6,3 6,6l0 104c0,4 -3,7 -6,7l-123 0c-4,0 -7,-3 -7,-7l0 -104c0,-3 3,-6 7,-6zm25 -14l75 0 0 22 -75 0 0 -22zm-72 2l29 0c0,0 1,0 1,1l0 126c0,1 -1,2 -1,2l-29 0c-1,0 -2,-1 -2,-2l0 -126c0,-1 1,-1 2,-1z"/>
 </g>
</svg>
